[h264 @ 0x55a140c8c000] Reinit context to 1920x1088, pix_fmt: yuv420p
Input #0, mov,mp4,m4a,3gp,3g2,mj2, from '/var/www/html/project/media/video/original/DJI_20220325030407_0009_S.MP4':
  Metadata:
    major_brand     : isom
    minor_version   : 512
    compatible_brands: isomiso2avc1mp41
    creation_time   : 2022-03-25T03:04:07.000000Z
    encoder         : Lavf56.15.102
  Duration: 00:00:50.38, start: 0.000000, bitrate: 31073 kb/s
    Stream #0:0(und): Video: h264 (High), 1 reference frame (avc1 / 0x31637661), yuv420p(left), 1920x1080 (1920x1088), 31072 kb/s, 29.97 fps, 29.97 tbr, 30k tbn, 58 tbc (default)
    Metadata:
      creation_time   : 2022-03-25T03:04:07.000000Z
      handler_name    : VideoHandler
Input #1, png_pipe, from '/var/www/html/project/static/images/templates/logo.png':
  Duration: N/A, bitrate: N/A
    Stream #1:0: Video: png, 1 reference frame, rgba(pc), 1920x1080 [SAR 2835:2835 DAR 16:9], 25 tbr, 25 tbn, 25 tbc
[h264 @ 0x55a140cbf600] Reinit context to 1280x720, pix_fmt: yuv420p
Input #2, mov,mp4,m4a,3gp,3g2,mj2, from '/var/www/html/project/static/images/templates/Codino.mp4':
  Metadata:
    major_brand     : mp42
    minor_version   : 1
    compatible_brands: isommp41mp42
    creation_time   : 2021-07-11T07:02:58.000000Z
  Duration: 00:00:02.00, start: 0.000000, bitrate: 1007 kb/s
    Stream #2:0(ita): Audio: aac (LC) (mp4a / 0x6134706D), 44100 Hz, stereo, fltp, 102 kb/s (default)
    Metadata:
      creation_time   : 2021-07-11T07:02:58.000000Z
      handler_name    : Core Media Audio
    Stream #2:1(und): Video: h264 (High), 1 reference frame (avc1 / 0x31637661), yuv420p(tv, bt709, progressive, left), 1280x720 [SAR 1:1 DAR 16:9], 813 kb/s, 25 fps, 25 tbr, 25k tbn, 50k tbc (default)
    Metadata:
      creation_time   : 2021-07-11T07:02:58.000000Z
      handler_name    : Core Media Video
[Parsed_scale_0 @ 0x55a140cb6fc0] w:1920 h:1080 flags:'bilinear' interl:0
[Parsed_scale_2 @ 0x55a140cda600] w:1920 h:1080 flags:'bilinear' interl:0
[Parsed_scale_4 @ 0x55a140cd8380] w:1920 h:1080 flags:'bilinear' interl:0
Stream specifier ':a' in filtergraph description [0:v] scale=w=1920:h=1080, setsar=1 [video-scaled];         [1:v] scale=w=1920:h=1080, setsar=1 [wm-watermarks];         [2:v] scale=w=1920:h=1080, setsar=1 [video2];         [video-scaled][wm-watermarks]overlay=0:0 [video0];         [video0][0:a][video2][2:a] concat=n=2:v=1:a=1[v][a] matches no streams.
[AVIOContext @ 0x55a140c933c0] Statistics: 260309 bytes read, 2 seeks
[AVIOContext @ 0x55a140cbd3c0] Statistics: 111578 bytes read, 0 seeks
[AVIOContext @ 0x55a140c90800] Statistics: 65536 bytes read, 1 seeks
